<svg xmlns="http://www.w3.org/2000/svg" width="256" height="256"><path fill="#1976D2" fill-opacity=".016" fill-rule="evenodd" d="M0 128.004v128.004l128.25-.254 128.25-.254.254-127.75L257.008 0H0zm.485.496c0 70.4.119 99.053.265 63.672.146-35.38.146-92.98 0-128C.604 29.153.485 58.1.485 128.5"/><path fill="#1976D2" fill-opacity=".171" fill-rule="evenodd" d="M43.661 13.848c-4.321 2.622-5.019 5.584-5.607 23.801-.491 15.198-.781 17.417-2.547 19.5-1.884 2.223-1.837 2.215.877-.149l2.87-2.5-1.745 3.5c-.96 1.925-2.733 4.85-3.941 6.5-4.892 6.685-11.452 18.54-14.538 26.272-1.799 4.508-3.65 7.963-4.113 7.677-.463-.286-1.215.921-1.671 2.683-.457 1.762-1.71 3.69-2.784 4.286-7.325 4.058-7.277 3.974-7.955 13.85-1.169 17.022-.918 27 .872 34.732 2.772 11.97 5.694 20.889 7.473 22.812.934 1.01 1.215 1.112.648.235-.87-1.346-.774-1.369.739-.184.956.75 1.48 1.783 1.163 2.296-.317.512 1.875 3.287 4.871 6.166 2.996 2.878 6.25 6.795 7.232 8.704.981 1.909 3.596 6.146 5.81 9.417 3.431 5.067 5.349 10.034 5.893 15.26.069.663.531.955 1.027.649.496-.307.656-1.197.356-1.979-.567-1.477 1-.879 4.409 1.685 1.299.977 1.28 1.058-.147.604-1.221-.388-1.758.234-2.077 2.406-.246 1.68.029 2.944.647 2.964.592.02.177.582-.923 1.25-3.168 1.924-2.803 4.097 1.036 6.165 2.315 1.246 3.11 2.15 2.321 2.638-.728.45.443 1.17 2.971 1.827 2.295.597 5.866 1.524 7.937 2.06 2.071.537 9.159 1.443 15.75 2.015 6.592.571 15.585 1.465 19.985 1.985 23.835 2.817 70.651 1.884 73.105-1.457 1.364-1.856 9.156-4.713 9.584-3.514.171.48 2.326 1.113 4.788 1.406 6.744.804 32.381-5.718 30.373-7.727-.376-.376.067-.683.983-.683.917 0 1.667-.413 1.667-.917 0-.505 2.04-1.697 4.533-2.649 5.078-1.939 7.255-3.953 2.47-2.285-1.685.587-4.003.823-5.149.523-1.146-.3-4.845.321-8.219 1.379-7.487 2.347-11.635 2.514-11.635.468 0-.814 1.238-1.772 2.75-2.127 4.51-1.061 14.259-6.569 13.577-7.672-.348-.563.037-1.518.855-2.122.818-.604 1.792-2.325 2.166-3.826.571-2.295.313-2.819-1.63-3.307-2.555-.641-5.607-4.465-3.564-4.465 1.723 0 10.586-5.739 16.505-10.687 2.838-2.372 5.801-4.313 6.584-4.313.783 0 1.764-.337 2.181-.75.416-.412 1.729-.75 2.916-.75 1.794 0 2.102-.49 1.82-2.892-.282-2.396-.044-2.777 1.391-2.227 1.31.503 1.484.355.714-.608-1.517-1.897-.104-4.238 2.735-4.531 1.375-.143 3.287-1.205 4.25-2.361 1.148-1.379 1.772-1.634 1.813-.742.136 2.919 2.013-3.774 4.328-15.431 2.525-12.719 4.333-31.84 2.667-28.208-.773 1.685-.929 1.729-.988.279-.042-1.035-1.367-2.131-3.32-2.746l-3.25-1.025 3.831.446c3.294.384 3.659.239 2.604-1.032-.871-1.049-1.046-3.867-.603-9.7.343-4.522.296-7.77-.104-7.219-.401.552-2.55 1.119-4.777 1.26l-4.049.256-2.866-7.51c-1.576-4.13-2.995-7.509-3.154-7.509-.158 0-.026 2.212.295 4.916.664 5.614-.333 11.259-1.621 9.175-.498-.806-1.619-1.047-2.931-.631-1.977.628-2.643-.177-2.243-2.71.065-.412-.282-.75-.771-.75-.489 0-2.491-3.373-4.448-7.495-5.345-11.255-12.067-21.067-18.974-27.695-6.686-6.417-12.244-10.315-7.768-5.45 1.331 1.448 2.122 2.93 1.758 3.294-.364.364-.103 1.343.58 2.176.682.833-.931-.138-3.586-2.158-2.654-2.019-5.665-3.672-6.691-3.672-1.025 0-2.178-.508-2.562-1.129-1.846-2.988-23.109-10.987-35.58-13.386l-7.34-1.412 7 .543c3.85.298 8.684.908 10.742 1.355 2.058.447 3.515.446 3.238-.003-.277-.449.289-.995 1.258-1.214 2.485-.56-10.511-4.53-20.573-6.284-8.892-1.551-35.011-1.882-45.474-.576-3.195.398-6.013.393-6.263-.011-.25-.405 2.139-1.039 5.308-1.41 3.17-.37 8.239-1.254 11.264-1.963 5.196-1.217 4.421-1.304-14-1.577-16.197-.24-25.712-.489-33.583-.879-2.846-.141-.465-3.558 5.39-7.736l6.474-4.62-6.099-2.768c-3.354-1.523-7.077-3.079-8.272-3.459-1.541-.489-1.809-.915-.922-1.463 1.51-.934-3.486-2.733-10.802-3.89-3.82-.603-5.613-.429-7.525.73M203 12.794c0 .511-1.125.714-2.5.451-1.375-.263-2.5-.018-2.5.545 0 .562-1.012.835-2.25.605-1.238-.229-1.636-.133-.886.215 1.238.574-5.866 4.363-14.114 7.53-1.512.581-2.75 1.454-2.75 1.941 0 .487 2.363 2.068 5.25 3.513 7.476 3.743 20.732 12.686 24.187 16.318 1.615 1.699 3.684 3.088 4.597 3.088.913 0 2.174 1.013 2.802 2.25.888 1.749 1.023-.758.608-11.25-.656-16.6-1.801-21.624-5.338-23.422-3.999-2.033-7.106-2.813-7.106-1.784m-62.75 35.895c.963.252 2.537.252 3.5 0 .963-.251.175-.457-1.75-.457s-2.713.206-1.75.457M28.511 66.623c-.945 1.443-1.224 2.318-.62 1.944C29.045 67.854 31.374 64 30.65 64c-.231 0-1.193 1.18-2.139 2.623m166.887 3.211c.283.459.724 2.146.979 3.75.254 1.604.764 4.828 1.131 7.166.446 2.842 1.171 4.25 2.187 4.25 1.044 0 1.302-.547.826-1.75-.381-.963-.849-2.875-1.039-4.25-.41-2.947-3.269-10-4.054-10-.301 0-.314.375-.03.834m-21.993 4.416L171.5 76.5l2.25-1.905c2.114-1.79 2.705-2.595 1.905-2.595-.19 0-1.202 1.013-2.25 2.25M75 76.378c0 .207.787.995 1.75 1.75 1.586 1.243 1.621 1.208.378-.378C75.821 76.084 75 75.555 75 76.378m-53.838 3.165c-1.675 3.677-1.355 4.462.456 1.119.846-1.562 1.351-3.026 1.123-3.255-.229-.228-.939.733-1.579 2.136m145.891-.099c-3.732 3.973-8.375 5.64-15.278 5.487-5.814-.129-16.855.856-17.597 1.57-.178.171.59 2.04 1.706 4.155l2.028 3.844.044-3.25c.024-1.787.439-3.25.923-3.25.938 0 2.8 4.197 3.329 7.5.175 1.1.988 2.002 1.806 2.005.817.002 1.532.902 1.588 2 .19 3.72.396 4.35 1.917 5.872.836.835 1.607 3.515 1.713 5.955.19 4.374.224 4.415 2.472 2.942 2.409-1.578 2.12-3.804-.371-2.848-1.126.432-1.303.044-.766-1.682.383-1.234 1.088-2.394 1.565-2.577 1.21-.465 1.092-4.167-.132-4.167-1.707 0-1.159-6.812.628-7.812 1.114-.623 1.272-1.132.5-1.609-2.137-1.321-1.12-3.18 2.445-4.469 3.053-1.104 15.995-11.999 14.351-12.081-.316-.016-1.608 1.071-2.871 2.415M79 79.595c0 .247 2.77 2.239 6.155 4.427C89.556 86.867 92.384 88 95.078 88c2.886 0 4.499.731 6.89 3.122 1.717 1.717 3.386 2.858 3.708 2.535.852-.852 4.476 1.288 3.863 2.28-.284.46.153 1.392.972 2.072 1.174.975 1.489.976 1.489.006 0-.682.668-.973 1.5-.653 2.165.83 1.956-3.308-.248-4.92-.962-.703-1.423-1.604-1.025-2.003.399-.398 1.367-.191 2.152.46 1.16.963 1.61.663 2.407-1.607.895-2.547 1.042-2.616 1.679-.792.384 1.1 1.209 3.125 1.834 4.5l1.135 2.5.347-3.25c.402-3.783 1.746-4.269 2.583-.934.32 1.273 1.519 3.396 2.665 4.718 1.604 1.848 2.271 2.098 2.899 1.082.626-1.012 1.188-.789 2.409.955 1.427 2.037 1.662 2.094 2.257.544.366-.952.039-4.067-.724-6.923l-1.389-5.192-18.991-.131c-10.444-.072-19.916-.185-21.049-.25-1.132-.066-4.62-1.661-7.75-3.546C81.561 80.688 79 79.348 79 79.595m-61.376 7.944c-.965 2.514-.681 3.163.498 1.136.584-1.004.851-2.036.593-2.293-.257-.258-.749.263-1.091 1.157M136.7 104.264c-1.922 3.595-2.164 4.453-.772 2.736 1.392-1.716 2.044-2.03 2.082-1 .09 2.516 2.99-2.033 2.99-4.691 0-3.598-1.258-2.734-4.3 2.955m-126.2 2.517C7.196 107.463 6.324 109 9.241 109c1.453 0 2.938-.48 3.3-1.067.861-1.393.396-1.655-2.041-1.152m147.08 3.409c-1.689 2.411-1.235 3.865.627 2.003 1.104-1.104 2.033-4.193 1.261-4.193-.195 0-1.045.985-1.888 2.19m-16.464 2.182c-.099 2.445.107 2.688 1.384 1.628 1.644-1.364 2.051-2.459.576-1.547-.509.314-1.131-.222-1.384-1.191-.274-1.05-.507-.602-.576 1.11m44.634 1.521c-2.097 2.127-2.265 3.242-.378 2.518 1.02-.392 1.256.194.919 2.281-.907 5.62-1.211 5.874-3.752 3.134-6.136-6.618-17.214-9.934-23.539-7.046-1.925.879-4.175 1.627-5 1.663-2.177.093-1.94 4.945.261 5.369.957.184 3.158-.373 4.893-1.239 3.917-1.954 4.42-1.97 2.86-.09-1.022 1.231-.776 1.657 1.442 2.5 1.471.56 2.932 1.017 3.248 1.017 2.129 0 17.239 8.313 19.165 10.545 3.125 3.62 6.51 9.41 5.873 10.046-.968.968-5.399-.733-8.217-3.154-1.56-1.34-3.409-2.437-4.109-2.437-1.733 0-4.416 2.808-4.416 4.621 0 8.244-14.639 13.407-24.198 8.533-2.252-1.148-3.445-1.386-3.154-.629.676 1.761-2.638 2.729-4.383 1.28-1.202-.998-1.744-.871-2.873.674-1.594 2.18-1.788 3.521-.509 3.521.486 0 1.118.896 1.405 1.992.357 1.367-.373 2.743-2.328 4.388-1.567 1.319-2.537 2.71-2.155 3.092.382.382.695 1.208.695 1.836 0 .627 1.575 1.267 3.5 1.42 4.271.342 11.785 1.762 14.5 2.74 1.604.578 1.703.507.5-.358-.927-.667-1.045-1.085-.309-1.095.655-.008 1.429.371 1.72.842.732 1.183 7.85.875 8.243-.357.332-1.04-5.863-5.5-7.64-5.5-.558 0-1.014-.47-1.014-1.044 0-.574.563-.971 1.25-.881 2.544.33 3.851-.103 3.249-1.077-.861-1.393 4.306-3.299 8.378-3.091 1.858.095 4.108-.465 5-1.245.893-.78 3.092-1.621 4.886-1.869l3.264-.451-2.032 2.163c-1.828 1.946-1.855 2.144-.264 1.971 2.976-.325 6.774-2.174 8.31-4.045 1.332-1.623 1.263-1.727-.79-1.198-1.237.318-2.52.141-2.851-.395-.331-.536-1.232-.733-2.001-.438-.77.296-1.399.075-1.399-.49 0-.566-.45-.75-1-.41-1.897 1.173-.992-.688 1.747-3.59 2.8-2.967 5.871-3.962 4.968-1.61-.349.909.518 1.3 2.879 1.3 2.016 0 2.879-.316 2.141-.785-.882-.56-.758-.789.433-.8 1.442-.013 6.31 6.259 6.326 8.152.003.366.344 1.004.756 1.416.412.413.75 2.039.75 3.615 0 3.553 2.721 4.904 4.628 2.297.988-1.353 1.049-2.179.233-3.163-.608-.733-.736-1.332-.283-1.332.452 0 .282-.54-.378-1.2-.66-.66-1.2-2.354-1.2-3.765 0-1.41-.879-4.205-1.954-6.21-1.074-2.005-2.098-4.698-2.275-5.985-.177-1.287-.651-2.865-1.054-3.507-.403-.642-1.029-3.342-1.391-6-.362-2.658-1.747-6.858-3.078-9.333-1.331-2.475-2.633-5.615-2.895-6.979-.425-2.22-1.994-4.066-3.353-3.946-.275.024-1.287.842-2.25 1.818m28.248.609c-2.05 2.182-2.232 2.976-1.424 6.217 1.203 4.826 5.055 7.227 8.833 5.505 3.252-1.481 3.512-6.205.604-10.974-2.375-3.895-4.84-4.125-8.013-.748m-17.748 3.207c-.806 1.733-.906 3.035-.283 3.658 1.204 1.204 2.326-1.376 1.862-4.285-.299-1.876-.443-1.819-1.579.627M94 119.383c0 .211.901.619 2.001.907 1.101.288 1.75.115 1.441-.383-.538-.871-3.442-1.313-3.442-.524m-4 1.676c0 .582.45.781 1 .441s1-.816 1-1.059-.45-.441-1-.441-1 .477-1 1.059m-56.483 3.566c-2.62 2.621-1.606 7.633 1.786 8.819 3.697 1.292 6.107-.254 6.501-4.169.34-3.377-1.879-6.275-4.804-6.275-1.021 0-2.589.731-3.483 1.625m132.026 10.306c-.317.512-.118 1.213.441 1.559.559.345 1.016-.074 1.016-.931 0-1.757-.6-2.015-1.457-.628m-134.464 8.652c.048 1.165.285 1.402.604.605.289-.722.253-1.585-.079-1.917-.332-.332-.568.258-.525 1.312m96.095 4.918c-1.925 1.943-2.134 2.705-1.214 4.423 1.737 3.248 8.914 2.872 11.445-.599 2.592-3.554 1.111-5.771-4.007-5.999-2.914-.129-4.485.42-6.224 2.175M56.5 148c-.34.55-.141 1 .441 1S58 148.55 58 148s-.198-1-.441-1-.719.45-1.059 1m130.007 5.989c-.35.566.051.734.941.393 1.732-.665 2.049-1.382.611-1.382-.518 0-1.216.445-1.552.989M174 156c-.825.533-1.05.969-.5.969s1.675-.436 2.5-.969c.825-.533 1.05-.969.5-.969s-1.675.436-2.5.969m-48.5 2.08c3.138.951 11.09.663 12.193-.44.352-.352-2.922-.601-7.276-.554-6.368.069-7.33.264-4.917.994m-13.423 4.509c-3.394 2.855-3.914 4.876-1.495 5.804 2.537.974 5.232.712 9.04-.88l3.558-1.486-3.013-3.014c-3.668-3.668-4.202-3.696-8.09-.424M202 167.5c0 .917.484 1.505 1.075 1.308.591-.197 1.075-.786 1.075-1.308s-.484-1.111-1.075-1.308c-.591-.197-1.075.391-1.075 1.308m-47 1.559c0 .582.45.781 1 .441s1-.816 1-1.059-.45-.441-1-.441-1 .477-1 1.059m87.872 10.691c-1.269 1.619-1.222 1.64.628.283 1.1-.807 2.188-1.594 2.417-1.75.229-.156-.054-.283-.628-.283s-1.662.787-2.417 1.75m-27.001 9.01c-5.95 6.48-13.566 12.546-14.797 11.786-.557-.344-2.713.272-4.793 1.37s-3.331 2-2.781 2.004c.55.005 2.125-.634 3.5-1.42 1.375-.786 2.928-1.445 3.45-1.465 1.612-.06-.76 1.8-4.98 3.905-5.577 2.782-2.776 2.534 5.171-.457 6.438-2.423 21.715-11.798 24.298-14.909.687-.829 1.013-2.084.723-2.79-.345-.841-.745-.577-1.159.766-.347 1.127-1.509 2.597-2.582 3.267-1.843 1.151-1.915.998-1.308-2.799.354-2.21.414-4.018.135-4.018-.279 0-2.474 2.142-4.877 4.76m-190.12 3.748c1.121 2.196 4.016 7.002 6.434 10.681 3.431 5.22 4.716 6.478 5.855 5.73 1.259-.825 1.23-1.133-.212-2.241-.919-.706-1.594-2.16-1.5-3.231.096-1.089-.379-1.837-1.078-1.697-.688.138-1.138-.143-1-.623.137-.48-1.437-2.475-3.5-4.433-2.062-1.958-3.75-3.985-3.75-4.504 0-.52-.74-1.559-1.644-2.309-1.315-1.092-1.236-.567.395 2.627m175.999 14.181c-2.919.763-1.958 2.398 1 1.701 3.45-.813 5.373-2.433 2.7-2.274-1.073.064-2.737.322-3.7.573m6.25 5.252c0 .518.45 1.219 1 1.559.55.34 1-.084 1-.941s-.45-1.559-1-1.559-1 .423-1 .941m-26 15.625c0 2.148 2.213 4.191 4.027 3.717 1.941-.508 1.96-.64.358-2.41-1.581-1.747-4.385-2.583-4.385-1.307m7 .851c0 .87.713 1.583 1.583 1.583 1.766 0 1.459-2.153-.395-2.771-.654-.218-1.188.317-1.188 1.188m-11 1.524c0 .518.445 1.216.989 1.552.566.35.734-.051.393-.941-.665-1.732-1.382-2.049-1.382-.611m-11.5 3.061c-1.428.612-.307.878 3.917.928 3.254.038 5.729-.095 5.5-.297-1.083-.955-7.637-1.394-9.417-.631m1 7.998c-1.786.767-1.712.867.691.93 1.48.038 2.969-.38 3.309-.93.738-1.194-1.222-1.194-4 0"/><path fill="#1976D2" fill-opacity=".62" fill-rule="evenodd" d="M43.261 15.529c-3.299 2.311-4.249 7.541-4.255 23.421-.005 11.239.261 14.183 1.194 13.25 1.998-1.998 2.706-1.358 1.84 1.661-1.155 4.026-2.519 6.382-8.215 14.189-6.198 8.496-10.345 19.627-8.21 22.041 1.215 1.374 1.143 2.258-.53 6.5-1.065 2.7-2.703 7.487-3.641 10.638-.937 3.15-2.051 5.514-2.474 5.253-.423-.262-1.335-2.836-2.027-5.72l-1.258-5.245-1.874 3.992c-2.864 6.1-4.431 8.538-5.075 7.894-.322-.322-1.519-.289-2.661.073-1.817.577-2.075 1.459-2.075 7.091V127h3.059c1.785 0 2.802.417 2.441 1-.34.55-1.69 1-3 1-2.676 0-4.182 1.559-2.256 2.336.758.305.562.537-.494.585-2.515.114-2.284 6.132.751 19.579 3.669 16.258 6.439 23.523 9.478 24.862 2.843 1.252 8.021 6.016 8.021 7.379 0 .493 4.258 5.352 9.463 10.799 7.734 8.094 9.359 10.321 8.892 12.182-.473 1.886-.166 2.281 1.787 2.293 1.297.009 2.999.421 3.782.917.955.604.213.789-2.25.56-4.702-.437-4.678.983.063 3.78 2.95 1.741 3.346 2.281 1.877 2.564-1.023.197-3.104-.561-4.624-1.685-1.52-1.124-3.042-1.765-3.383-1.425-.757.757 7.306 6.225 9.393 6.369.825.058.375.428-1 .822l-2.5.719 3.25 1.707c1.788.94 3.25 1.853 3.25 2.03 0 .176-.915 1.376-2.033 2.666-1.741 2.006-1.819 2.464-.542 3.179.821.459 1.281 1.386 1.022 2.059-.834 2.173 9.309 5.937 18.498 6.865 4.705.476 12.83 1.361 18.055 1.967 13.508 1.567 53.519 2.245 66.349 1.124 10.161-.888 10.991-1.126 13.084-3.751 1.631-2.046 2.819-2.649 4.4-2.236 1.191.311 2.431.137 2.755-.388.362-.587 1.038-.599 1.751-.032 2.545 2.023 8.093 2.017 10.306-.011 1.599-1.466 2.337-1.653 2.904-.736.442.715.346.974-.228.619-.543-.335-.988.021-.988.792 0 1.129.406 1.174 2.084.231 1.146-.645 5.683-2.616 10.083-4.381 8.193-3.286 9.019-4.167 2.112-2.249-3.063.85-4.063.797-4.711-.251-.652-1.055-1.1-.951-2.164.505-1.227 1.678-1.457 1.697-2.68.223-1.217-1.466-1.47-1.423-2.799.474-1.386 1.979-1.556 1.998-3.359.366-1.045-.945-1.899-1.24-1.899-.657 0 .584-.921.821-2.046.527-1.19-.311-2.549.102-3.25.987-1.499 1.896-13.72 4.119-15.093 2.746-1.466-1.466 1.83-4.527 6.325-5.874 2.147-.643 6.19-1.221 8.984-1.284 3.578-.08 5.08-.519 5.08-1.484 0-1.611 2.157-1.812 3.63-.339 1.219 1.219 8.677-.977 8.373-2.466-.105-.514 2.214-2.186 5.153-3.715 4.975-2.588 5.102-2.741 1.844-2.219l-3.5.561 3.069-1.97c1.688-1.084 3.994-2.265 5.125-2.624 1.377-.437 2.056-1.507 2.056-3.24 0-2.422-.244-2.554-3.836-2.072-2.406.322-4.218.053-4.863-.723-.812-.978-2.274-.913-6.984.314-4.422 1.153-5.7 1.862-4.96 2.753.703.847 1.939.931 4.189.286 3.997-1.146 4.969-1.153 4.274-.028-.958 1.55-7.612 2.323-9.133 1.061-.821-.682-2.565-.897-4.174-.515l-2.763.656 3-2.527 3-2.527-3.25 1.081c-1.787.594-3.25 1.387-3.25 1.764 0 .376-1.204.783-2.675.905-1.471.122-3.419.895-4.329 1.718-2.32 2.1-3.262 1.862-1.996-.503.589-1.1 1.692-2 2.452-2s1.531-.38 1.715-.844c.183-.464 3.503-1.799 7.377-2.966 4.044-1.219 8.006-3.147 9.303-4.527l2.26-2.405-10.228 2.871c-12.098 3.396-16.1 3.683-6.879.494 4.887-1.691 6.427-2.668 6.206-3.936-.175-1.003.356-1.687 1.309-1.687.882 0 1.361-.392 1.065-.871-.296-.479.331-1.873 1.393-3.098 1.062-1.225 2.698-4.535 3.635-7.356.937-2.821 2.324-5.75 3.082-6.508 1.047-1.047 1.104-1.71.236-2.756-.908-1.094-.584-1.59 1.567-2.408 1.867-.71 2.523-1.519 2.109-2.599-.331-.862-.602-2.206-.602-2.986 0-1.051-1.486-1.436-5.75-1.488-4.012-.049-5.145-.319-3.75-.893 1.614-.664 1.71-.938.5-1.424-2.64-1.059-14-2.31-14-1.541 0 .407-.9.505-2 .218-1.216-.318-2-.031-2 .733 0 .691-.787 1.854-1.75 2.585-1.64 1.245-1.624 1.33.259 1.36 2.866.046 4.616 3.141 3.014 5.331-.684.936-1.981 1.701-2.883 1.701-2.157 0-2.095 1.635.11 2.92 1.489.867 1.33 1.024-1.066 1.05-1.548.016-3.608-.394-4.577-.913-.969-.518-2.851-1.117-4.184-1.331-1.333-.214-3.548-.874-4.923-1.466-1.375-.593-5.842-2.131-9.926-3.419-8.347-2.632-10.817-5.051-7.574-7.419a87.773 87.773 0 0 0 3.984-3.132c1.94-1.634 1.911-1.69-1.336-2.531-2.09-.542-3.779-.48-4.558.167-.681.565-2.33.77-3.664.456A188.762 188.762 0 0 0 124 159.13c-2.255-.439-3.055-.959-2.25-1.464.724-.454 1.25-2.852 1.25-5.702 0-5.223 1.335-6.84 7-8.479 1.375-.398 4.447-1.596 6.826-2.664 3.385-1.518 4.635-1.683 5.75-.758 2.158 1.791 1.791 4.937-.576 4.937-1.37 0-2 .667-2 2.117 0 1.745.46 2.028 2.625 1.614 1.764-.337 3.813.305 6.25 1.96 2.353 1.597 4.502 2.292 6.125 1.98 6.694-1.287 8.766-1.937 12-3.759l3.5-1.972-3.266 3.03c-3.577 3.319-2.821 3.902 1.894 1.464 3.03-1.567 5.872-6.583 5.872-10.363 0-1.479 1.03-2.271 3.987-3.067 3.631-.978 3.877-1.249 2.759-3.039-.675-1.08-2.785-2.257-4.69-2.614-1.92-.36-4.991-2.134-6.892-3.98-3.748-3.64-7.112-4.606-14.5-4.162-4.797.289-4.849.259-6.435-3.709-.88-2.2-1.941-4.142-2.358-4.315-.417-.173-.528-.915-.247-1.648.282-.734.032-1.632-.556-1.995-.628-.388-1.068.208-1.068 1.449 0 3.235-3.032 8.575-3.989 7.027-.433-.701-1.214-1.01-1.736-.688-1.013.626-.967-2.341.136-8.83.626-3.683.52-3.573-1.341 1.392-1.112 2.966-2.279 5.65-2.594 5.965-.871.871-3.842-1.29-5.054-3.677-.824-1.623-1.354-1.848-2.25-.952-.794.794-1.172.821-1.172.083 0-.599-.765-1.026-1.699-.95-2.797.229-7.374-9.917-6.742-14.944.406-3.229.192-4.084-1.023-4.084-.845 0-1.556.713-1.579 1.584-.024.87-1.144 3.383-2.49 5.583-1.345 2.2-2.986 5.125-3.647 6.5-1.132 2.356-1.306 3.096-1.672 7.133-.081.899-1.088 1.88-2.237 2.18-1.634.427-1.88.919-1.131 2.259.527.942.76 2.472.517 3.401-.362 1.383-1.203 1.572-4.663 1.047-2.322-.352-5.552-.264-7.178.195-15.399 4.354-16.556 4.004-8.611-2.602 3.233-2.689 5.343-3.645 8.25-3.738 2.148-.069 4.355-.237 4.905-.375.55-.138 1.9-.306 3-.375 2.529-.158 2.589-2.599.105-4.339-1.871-1.311-2.445-6.779-.876-8.349.385-.385.246-1.55-.31-2.589-.557-1.039-.696-2.4-.311-3.023.414-.67.256-.859-.384-.463-.597.369-1.368.213-1.714-.346-.345-.559-.2-1.016.324-1.016s1.22-.698 1.548-1.552c.327-.854.197-1.306-.289-1.006-.486.301-1.129-.093-1.429-.875-.3-.781-2.484-2.279-4.855-3.328-2.37-1.049-6.559-3.861-9.309-6.248-6.646-5.769-15.78-11.618-20.322-13.013-6.271-1.926-6.477-2.012-5.991-2.498 1.266-1.267 11.738 3.202 18.849 8.045 9.889 6.733 12.458 8.038 17.302 8.785 3.147.486 3.735.323 3.264-.906-.505-1.315-.324-1.323 1.476-.062 2.625 1.839 6.503 1.063 4.821-.964-.683-.823-.741-1.378-.144-1.378.55 0 1.556.67 2.236 1.489.68.819 1.604 1.262 2.053.984.45-.278 1.105-.041 1.456.527.351.568.98.821 1.398.563.418-.258 6.465-.538 13.438-.623 6.973-.084 12.931-.563 13.24-1.063.309-.5 1.093-.581 1.742-.18 1.482.915 6.88.425 8.085-.734.512-.493 1.68-.454 2.697.09 1.346.721 2.049.522 2.816-.796.959-1.647 1.025-1.64 1.054.115.026 1.633.247 1.697 1.722.5 1.15-.932 1.451-.971.941-.122-2.305 3.836 7.656-.895 15.525-7.374 4.038-3.324 9.536-7.32 12.217-8.879l4.876-2.834-4.641-2.359c-16.181-8.223-35.229-12.245-59.11-12.48-18.607-.183-13.817-1.582 6-1.752 8.489-.073 11.561-.401 10.5-1.121-1.051-.714.894-.868 6.5-.515 12.363.779 4.485-1.213-10-2.528-19.446-1.766-39.948.391-58.855 6.192-5.42 1.663-10.108 2.771-10.417 2.462-.309-.309-.036-.562.605-.562.642 0 1.167-.359 1.167-.797 0-.438-3.027-1.315-6.726-1.949-6.305-1.08-9.274-2.879-9.274-5.62 0-1.622 9.882-10.485 14.859-13.328 7.737-4.418 7.72-4.272.889-7.511C62.458 18.338 49.963 14 47.296 14c-1.018 0-2.834.688-4.035 1.529m153.121.415c-7.871 2.837-9.789 4.049-8.478 5.36.616.616 2.856.994 4.979.84 9.556-.69 14.667 5.46 9.134 10.993l-2.774 2.774 6.009 5.227c5.761 5.01 6.068 5.146 7.444 3.294 1.095-1.475 1.36-4.575 1.119-13.112-.267-9.491-.632-11.607-2.415-14-2.638-3.542-7.719-4.008-15.018-1.376m-49.569 31.739c.721.289 1.584.253 1.916-.079.332-.332-.258-.568-1.312-.525-1.165.048-1.402.285-.604.604m33.666 22.433C172.968 74.879 162 85.888 162 88.664c0 1.646-.574 2.336-1.941 2.336-2.194 0-4.01 2.183-2.292 2.756.616.205.855 1.132.53 2.059-.458 1.305-.311 1.426.656.535.952-.878 1.713-.684 3.216.819 1.866 1.866 2.104 1.882 4.524.296 2.09-1.369 3.021-1.461 5.12-.504 3.452 1.572 18.888 13.683 20.021 15.707 1.109 1.982 3.166.898 3.166-1.668 0-1.035.45-2.16 1-2.5 1.313-.811 1.298-12.198-.016-13.01-.559-.346-.761-1.042-.448-1.548.312-.505-.136-.649-.995-.319-1.118.429-1.394.157-.968-.952.467-1.219-.014-1.48-2.239-1.215-1.559.186-2.71.868-2.559 1.515.151.648-.217.874-.817.503s-.858-.908-.572-1.193c.285-.286-.168-1.206-1.008-2.045-1.004-1.005-1.164-1.75-.467-2.181 1.984-1.226-1.779-5.055-4.968-5.055-3.202 0-4.014-1.573-1.193-2.311 1.434-.374 1.378-.478-.309-.573-1.132-.064-2.918-.744-3.967-1.512-1.834-1.34-1.78-1.516 1.368-4.456 1.802-1.684 4.825-3.621 6.717-4.306 1.893-.684 3.441-1.603 3.441-2.043 0-1.404-1.489-.875-6.521 2.317m18.442 3.684c2.292 5.815 3.36 11.947 2.356 13.533-.406.642-.828 4.317-.937 8.167-.109 3.85-.265 7-.346 7-.861 0-1.208 5.954-.641 11 .186 1.65-.108 3.879-.652 4.953-1.25 2.468-1.099 13.934.215 16.389.544 1.017 1.193 2.974 1.442 4.349.25 1.375 1.349 4.707 2.442 7.405 3.709 9.146 4.676 11.902 4.438 12.654-.131.412.712.75 1.873.75 2.063 0 2.057.045-.25 1.967-1.361 1.134-1.801 1.981-1.04 2 .995.025.933.422-.25 1.604-1.377 1.378-1.791 2.788-1.486 5.067.047.351-.447.967-1.097 1.37-.651.402-1.252 1.914-1.336 3.361-.083 1.446-.459 2.63-.835 2.63-.745.001-1.938 3.14-1.555 4.093.131.325-1.455 2.658-3.524 5.183-2.07 2.526-3.327 4.861-2.794 5.19.533.33.7 1.299.371 2.155-.448 1.17.697.901 4.616-1.085 7.199-3.648 16.86-13.613 21.062-21.723 3.837-7.407 5.312-8.567 2.039-1.603-4.293 9.133-11.397 18.073-17.734 22.319-3.694 2.475-5.862 4.559-5.445 5.234 1.288 2.084 8.424-2.229 15.147-9.153 11.359-11.699 17.184-25.627 18.586-44.431 1.642-22.048-9.994-57.052-22.971-69.099-4.718-4.38-3.723-1.558 3.245 9.205 9.73 15.029 13.144 25.075 14.516 42.716l.505 6.5-1.845-8.5-1.846-8.5-.095 6.25L225 129h-4.1c-3.329 0-4.739-.639-7.5-3.4-4.35-4.35-4.595-8.744-.713-12.795 3.91-4.082 8.497-3.892 10.757.445l1.693 3.25-.61-4.438c-.941-6.837-6.023-18.506-11.53-26.472C208.106 78.515 199.408 69 197.83 69c-.44 0 .051 2.16 1.091 4.8M53.594 71.896c-1.362 1.505-1.591 3.001-1.112 7.25.331 2.945.206 8.184-.28 11.644-.485 3.459-.574 6.48-.197 6.713.892.551 3.037-14.704 2.877-20.463-.069-2.51.366-4.623.997-4.833 1.303-.434 1.524-2.207.276-2.207-.465 0-1.617.853-2.561 1.896M41.405 81.25 39.5 83.5l2.25-1.905c1.237-1.048 2.25-2.06 2.25-2.25 0-.8-.805-.209-2.595 1.905m130.188-.401c-.288.467.923.871 2.691.898 2.62.04 2.845-.104 1.216-.779-2.67-1.105-3.286-1.124-3.907-.119m-48.249 16.684c-1.185 2.53-.755 6.467.706 6.467.45 0 .986-1.237 1.191-2.75.329-2.412.536-2.165 1.686 2 1.397 5.065 3.073 6.333 3.073 2.327 0-1.333-1.058-3.696-2.351-5.25-1.293-1.555-2.531-3.375-2.75-4.044-.22-.671-.918-.11-1.555 1.25m12.667 2.445c-1.17 2.294-1.927 4.7-1.682 5.347.245.646 1.434-1 2.642-3.658 2.728-6.004 1.945-7.382-.96-1.689m6.024 2.072c-.019 1.403-.575 3.09-1.235 3.75-.933.933-.735 1.2.893 1.2 2.737 0 3.424-1.999 1.734-5.05l-1.356-2.45zm98.038 8.95c-.129 10.15-1.016 15-2.744 15-1.16 0-1.377 2.783-1.228 15.75.134 11.723-.252 17.667-1.513 23.25-1.958 8.669-3.155 19.275-1.665 14.746.499-1.515 2.094-4.166 3.546-5.892 2.518-2.993 2.611-3.022 2.011-.631-.461 1.836-.169 2.682 1.09 3.166 2.431.932 5.106-1.849 5.913-6.148.374-1.995 1.758-6.353 3.076-9.684 2.166-5.478 5.441-20.956 5.441-25.719 0-1.046-.787-2.177-1.75-2.514-1.802-.632-5.188-4.243-5.228-5.574-.012-.412.786-.75 1.774-.75 1.34 0 1.855-.887 2.031-3.5.142-2.114-.221-3.5-.918-3.5-.782 0-.836-.402-.168-1.25 1.311-1.662 1.23-5.067-.142-5.985-2.796-1.869-3.601-.683-3.721 5.485l-.122 6.25-.843-5.756c-.463-3.166-1.721-7.666-2.794-10l-1.95-4.244zm-95.49-4.134c-.431.697-.513 1.537-.183 1.867.895.895 1.871-.421 1.387-1.871-.338-1.016-.574-1.016-1.204.004m-29.568 3.17c.009 1.355.41 3.086.891 3.846.682 1.078 1.032.888 1.587-.861.475-1.496.178-2.778-.89-3.847-1.471-1.47-1.602-1.399-1.588.862m-82.458 14.187c-2.124 3.031-1.955 6.379.443 8.777 4.048 4.048 11 1.452 11-4.106 0-4.061-2.671-6.894-6.5-6.894-2.366 0-3.856.67-4.943 2.223m23.145 5.408c-.347.348.028 1.573.833 2.723 1.754 2.504 1.91 4.039.31 3.051-.715-.443-.883-.275-.44.44.392.635 1.308 1.155 2.036 1.155 1.074 0 1.097-.657.126-3.481-1.363-3.966-1.967-4.786-2.865-3.888m109.452 5.807c.191.917.796 1.644 1.346 1.615 1.484-.079 1.212-2.316-.346-2.835-.841-.28-1.215.177-1 1.22M57.165 139.25c.139.688-.774 4.578-2.029 8.646-1.255 4.068-2.345 8.23-2.422 9.25-.077 1.02-.408 1.854-.736 1.854s-.197 3.262.29 7.25c.488 3.988 1.01 8.375 1.16 9.75.332 3.024 2.602 8 3.649 8 1.341 0 1.662-2.433.66-5-.995-2.548-1.25-17.722-.365-21.685.269-1.202.958-3.063 1.532-4.135 1.674-3.128 2.17-9.924.924-12.659-1.179-2.586-3.116-3.511-2.663-1.271m-26.612 3.665a1.116 1.116 0 0 0 .362 1.532c.521.322 1.21.159 1.532-.362a1.116 1.116 0 0 0-.362-1.532 1.116 1.116 0 0 0-1.532.362m124.18 8.209c.679.684 1.486.991 1.793.683.308-.308-.247-.867-1.233-1.243-1.425-.542-1.54-.428-.56.56m-50.816 2.266c-.229.214-2.401.661-4.827.993-2.425.331-4.559.753-4.743.937-.621.621 5.321 6.68 6.551 6.68.671 0 .95.437.62.971-.33.534.577 1.266 2.014 1.626l2.615.657-3.117 3.215c-2.597 2.68-2.883 3.408-1.715 4.378 1.069.887 3.145.833 8.758-.229 4.046-.765 7.911-1.178 8.59-.917 1.512.58 7.342-2.736 7.325-4.167-.007-.569-1.628-2.081-3.602-3.36-2.731-1.769-3.488-2.859-3.164-4.553.532-2.787-1.932-5.539-2.841-3.172-1.095 2.855-8.381 1.129-8.381-1.984 0-1.3-2.999-2.09-4.083-1.075m115.063 15.134c-.696.838-1.012 1.777-.704 2.086.309.309 1.064-.377 1.678-1.524 1.31-2.448.824-2.728-.974-.562M25.597 173c.422 1.375.724 3.4.671 4.5-.361 7.523 3.333 14.232 10.742 19.507l2.908 2.071-.468-3.662c-.299-2.336-3.032-7.51-7.545-14.289-3.892-5.845-6.73-9.502-6.308-8.127M240 175c0 .55.423 1 .941 1s1.219-.45 1.559-1c.34-.55-.084-1-.941-1s-1.559.45-1.559 1M59 187c0 1.264 2.043 1.264 4 0 1.169-.755.893-.973-1.25-.985-1.513-.008-2.75.435-2.75.985m128.013 10.971c-1.169.739-1.009.904.75.772 1.23-.093 2.237-.523 2.237-.956 0-1.043-1.159-.972-2.987.184m5.237 20.113c-2.457.93-2.98 1.925-1 1.901 1.588-.02 4.345-1.734 3.721-2.314-.259-.241-1.483-.055-2.721.413m-7.25 1.885c0 .532.675.709 1.5.393.825-.317 1.5-.753 1.5-.969 0-.216-.675-.393-1.5-.393s-1.5.436-1.5.969"/><path fill="#1976D2" fill-opacity=".317" fill-rule="evenodd" d="M204.813 14.683c.721.289 1.584.253 1.916-.079.332-.332-.258-.568-1.312-.525-1.165.048-1.402.285-.604.604M42.663 16.82c-3.144 3.475-4.585 18.73-2.839 30.069l.676 4.39 7-6.262c3.85-3.444 7.9-7.185 9-8.314l2-2.051-2.723 1.679c-2.645 1.631-2.77 1.609-4.34-.787-1.322-2.018-1.413-3.068-.497-5.756 1.318-3.868 3.974-5.935 9.804-7.631 3.204-.931 4.765-.955 6.371-.096 1.302.698 1.879.738 1.487.104C67.485 20.358 52.22 15 48.187 15c-2.479 0-4.471.656-5.524 1.82m21.844 13.169c-.35.566.051.734.941.393 1.732-.665 2.049-1.382.611-1.382-.518 0-1.216.445-1.552.989M106 43.717c-13.822 1.57-30.767 6.552-42.31 12.441-2.273 1.16-5.421 2.478-6.996 2.93-2.389.685-2.672.59-1.704-.575.935-1.127.38-1.794-2.876-3.455C49.895 53.926 47.889 53 47.655 53c-.234 0-1.202 1.186-2.152 2.636C43.561 58.6 42.626 65 44.134 65c.541 0 .725.419.409.931-.317.512-.049 1.256.595 1.654.734.454.903.29.453-.438-.404-.654-.016-1.43.889-1.778 3.351-1.286 2.523.665-2.557 6.025-5.918 6.245-14.273 18.114-16.498 23.439-.812 1.943-2.468 7.163-3.681 11.6-1.935 7.079-2.207 10.576-2.224 28.567-.018 18.88.171 21.117 2.394 28.312 2.578 8.341 7.202 16.494 16.389 28.892 4.498 6.071 7.042 8.45 12 11.223 11.185 6.255 20.999 8.894 38.07 10.238 8.655.682 8.894.761 4.627 1.533-2.475.448-6.075.573-8 .277-1.925-.296-5.233-.813-7.352-1.15-2.646-.421-4.104-.205-4.658.69-.807 1.307-2.514.932-9.49-2.081-3.76-1.624-7.946-1.488-9.75.316-2.446 2.446-3.898 2.186-3.205-.574.603-2.4-1.664-5.339-3.325-4.312-.478.295-.835-.4-.794-1.545.055-1.534-.913-2.429-3.676-3.398-2.103-.738-3.75-.9-3.75-.369 0 .522.45.948 1 .948 1.467 0 1.223 2.99-.25 3.056-.687.031.291.594 2.175 1.25 4.679 1.631 5.179 3.684.908 3.729l-3.333.036L44 213.5c1.375.786 3.072 1.445 3.771 1.465 1.992.055 9.603 5.41 8.305 5.843-.84.28-.86.747-.075 1.694.877 1.056.405 1.153-2.458.508-2.082-.47-3.543-.418-3.543.127 0 .509.562 1.097 1.25 1.306.687.209 4.063 1.18 7.5 2.158 3.438.978 6.25 2.141 6.25 2.585 0 .445 1.463 1.448 3.25 2.23l3.25 1.421-4 .097c-2.969.072-3.613.346-2.5 1.066 1.108.716 1.155.973.179.985-.983.011-.912.425.276 1.613 1.769 1.769 10.602 3.785 23.485 5.361 11.996 1.468 44.465 2.509 46.69 1.497 1.029-.467 5.245-1.396 9.37-2.064l7.5-1.215-6.5.026c-9.245.038-14.801-.357-12.695-.903 2.428-.629 1.623-2.597-1.379-3.369-1.79-.461-.853-.816 3.574-1.354 8.111-.987 8.957-1.404 3.036-1.498-4.579-.073-4.838-.205-3.343-1.701 1.289-1.289 4.092-1.665 13.67-1.832 7.75-.136 11.83.142 11.436.779-.377.61.312.741 1.795.342 1.323-.356 6.119-1.192 10.656-1.857 6.637-.974 8.25-1.544 8.25-2.917 0-1.218.576-1.555 2.015-1.179 1.488.389 1.866.138 1.444-.96-.638-1.663-12.205-3.172-13.945-1.818-.558.433-2.308 1.098-3.89 1.477-2.381.57-2.771.412-2.262-.914.364-.949.203-1.348-.395-.978-.556.343-3.718.771-7.027.95-5.153.28-5.845.119-4.818-1.118.659-.794 1.787-1.218 2.506-.942.719.276 1.542.122 1.829-.341.286-.463-.306-1.059-1.317-1.323-1.01-.264-2.088-1.438-2.394-2.609-.48-1.837-.227-2.046 1.849-1.525 1.323.332 2.405.166 2.405-.369 0-1.11 6.8-3.785 12-4.721 7.805-1.405 12.944-2.939 11.935-3.563-.588-.364-4.752-.063-9.252.669-9.719 1.581-12.915 1.721-10.683.469.825-.463 3.3-1.178 5.5-1.589 3.33-.623 3.665-.884 2-1.558-1.1-.446-1.449-.842-.776-.881.674-.038 1.923-1.42 2.776-3.07 1.591-3.076 4.2-4.266 3.106-1.416-.385 1.003-.15 1.433.643 1.173.688-.226 1.39-1.811 1.56-3.522.226-2.277.875-3.195 2.421-3.423 1.913-.282 1.836-.454-.808-1.81-1.607-.825-3.147-1.725-3.422-2-.275-.276-1.537-1.083-2.803-1.794-1.883-1.056-2.272-1.056-2.132 0 .46 3.455-.057 3.843-2.815 2.118-1.512-.947-2.414-1.333-2.004-.86.411.473-.53 1.637-2.091 2.586-3.415 2.077-10.834 3.276-11.691 1.89-.932-1.509 1.823-6.94 3.53-6.957 1.244-.013 1.266-.167.128-.889-.758-.48-1.109-1.307-.781-1.839.586-.948-2.383-4.162-5.341-5.78-.937-.513-.75.078.5 1.575 1.873 2.244 1.765 2.223-1.683-.328-2.026-1.498-4.107-2.724-4.624-2.724-1.924 0-10.193-5.217-10.193-6.431 0-.692.882-2.057 1.96-3.033 1.078-.976 1.925-2.058 1.882-2.405-.043-.347-.019-1.306.055-2.131.111-1.244.282-1.265 1.007-.122.52.822 1.395 1.055 2.168.578.977-.604.82-.987-.638-1.558-3.079-1.206-5.434-1.011-5.434.45 0 1.849-5.682 1.923-6.388.083-.737-1.921-6.612-1.919-6.612.002 0 .788.855 1.703 1.899 2.035 1.044.331 3.048 1.752 4.453 3.156 2.13 2.131 2.36 2.864 1.385 4.425-.642 1.029-1.414 1.473-1.715.987-.3-.487-2.683.145-5.294 1.403-2.611 1.259-6.57 2.288-8.798 2.288-3.916 0-8.551 1.705-10.256 3.771-.537.651-1.003.567-1.331-.24-.367-.903-1.028-.962-2.424-.215-1.379.739-1.919.701-1.919-.133 0-.745-1.031-.954-2.883-.583-1.586.317-4.174.83-5.75 1.14-1.577.311-.222-.497 3.011-1.795 4.664-1.873 5.49-2.512 4-3.097-1.61-.633-1.33-1.022 1.963-2.727 3.575-1.851 3.731-2.111 2.248-3.75-.876-.968-1.355-1.999-1.063-2.291.292-.291-1.493-2.055-3.967-3.919-3.377-2.544-4.505-4.069-4.528-6.122-.031-2.725-.009-2.733 6.719-2.594 3.713.077 8.237-.197 10.054-.608 2.669-.603 3.645-.353 5.083 1.306 1.654 1.907 1.939 1.94 4.036.471 1.777-1.244 2.769-1.347 4.667-.482 2.68 1.221 2.894.915 1.361-1.951-.817-1.526-.554-2.842 1.184-5.934 2.047-3.642 3.023-4.423 5.115-4.092.412.065.75-.505.75-1.265 0-.761.787-1.648 1.75-1.971.963-.324 2.65-1.163 3.75-1.867 1.1-.703 2.06-1.279 2.133-1.279.073 0 .442-1.439.818-3.198.57-2.662.255-3.571-1.883-5.43-1.412-1.228-2.568-2.765-2.568-3.415 0-.693-1.126-1.058-2.724-.883-1.498.165-3.197-.094-3.776-.574-.579-.48-2.314-.735-3.857-.565-1.876.206-3.002-.229-3.401-1.314-.328-.891-.892-1.846-1.255-2.121-.362-.275-1.15-1.4-1.752-2.5-1.042-1.904-1.146-1.865-2.171.831-.592 1.557-1.608 2.654-2.258 2.438-1.239-.413-4.892 2.689-4.688 3.981.42 2.66-.364 3.1-4.784 2.685-5.929-.556-10.54.722-15.068 4.175-2.934 2.239-4.626 2.734-9.421 2.76-4.111.023-5.845.417-5.845 1.331 0 .714-.338 1.199-.75 1.077-.412-.123-1.987.604-3.5 1.615-2.834 1.893-3.898 6.593-1.5 6.622.865.011.911.242.15.75-1.514 1.011-3.684 5.284-3.021 5.948.298.297-.005 1.946-.673 3.664-.668 1.718-1.152 3.798-1.076 4.623.077.825.191 2.234.255 3.131.075 1.072 1.746 2.052 4.865 2.856 4.489 1.156 4.612 1.277 2.25 2.181-1.375.526-3.927.69-5.672.364-1.745-.326-3.406-.215-3.692.248-.863 1.396 1.552 9.355 3.008 9.913.746.287 1.356 1.32 1.356 2.297 0 .981.97 2.03 2.164 2.343 1.911.499 2 .765.758 2.261-1.255 1.512-1.189 1.626.613 1.053 5.589-1.773 13.804-3.642 14.213-3.232.255.255-2.762 1.443-6.705 2.64-5.381 1.635-7.028 2.543-6.605 3.643.309.806.562 1.639.562 1.85 0 .212 1.463-.454 3.25-1.479 1.787-1.025 4.375-2.136 5.75-2.468 1.375-.332.639.256-1.636 1.308-4.778 2.209-6.152 3.851-3.933 4.703.857.329 1.309 1 1.004 1.493-.877 1.419 1.388 1.043 4.35-.724l2.715-1.618-2.349 1.948c-2.183 1.809-2.233 2.065-.701 3.596.907.907 2.393 2.065 3.302 2.574 2.286 1.279.092 3.877-2.987 3.536a139.35 139.35 0 0 0-3.339-.334c-.591-.046-3.874-2.797-7.295-6.114-3.422-3.317-6.646-5.769-7.165-5.448-.519.321-.675-.115-.348-.969.328-.854.305-1.552-.051-1.552-1.447 0-8.567 4.105-8.567 4.939 0 .494 1.575 1.871 3.5 3.061 5.293 3.271 4.191 3.501-1.62.338-12.041-6.553-24.358-26.393-26.362-42.461-.384-3.082.166-1.945 1.859 3.841 1.323 4.52 3.728 11.045 5.346 14.5 2.849 6.085 12.201 18.432 14.681 19.383.671.258 3.317-.704 5.881-2.137 4.639-2.593 4.652-2.615 2.742-4.665-1.32-1.418-2.638-1.876-4.223-1.47-2.279.585-2.276.57.196-1.347 2.317-1.795 2.353-1.948.5-2.078-1.1-.078-2.675-.095-3.5-.038-.825.056-.448-.426.837-1.073 1.961-.987 2.227-1.667 1.654-4.235-.376-1.682-.697-5.579-.714-8.66-.028-5.1-.265-5.694-2.654-6.643l-2.623-1.042 2.417-.107c1.329-.058 2.138-.385 1.797-.725-.34-.341.039-1.277.843-2.081.804-.804 1.225-1.844.936-2.312-.289-.467-.061-1.137.507-1.488.568-.351.774-1.057.457-1.569-.316-.512.015-.931.736-.931s1.409-1.238 1.527-2.75c.119-1.513.376-3.816.572-5.12.195-1.303.035-4.453-.356-7-.49-3.194-.284-5.459.662-7.302.755-1.469.97-2.819.479-3-.492-.18-1.048-1.228-1.235-2.328-.188-1.1-.792-2.321-1.342-2.713-1.523-1.084-2.493-26.469-1.536-40.171l.551-7.884-6.718 7.272C35.193 89.483 28.196 104.955 26.128 121.5c-.756 6.049-.892 6.38-1.002 2.434-.641-23.146 17.678-52.186 40.08-63.539 6.933-3.513 7.052-2.92.235 1.166-3.267 1.958-6.6 4.208-7.405 5-1.282 1.26-1.199 1.439.667 1.439 3.115 0 10.488 3.379 17.054 7.816 3.159 2.134 6.305 3.686 6.992 3.449.688-.237 1.522.279 1.855 1.146.333.868.972 1.351 1.42 1.074.448-.277 1.535.217 2.415 1.097 1.306 1.306 2.176 1.399 4.729.509 2.283-.796 3.493-.787 4.48.032 1.017.844 1.352.803 1.352-.167 0-.709.296-.993.658-.631.362.362 1.262.156 2-.456.738-.613 1.349-.721 1.357-.241.009.479.459.197 1-.628.737-1.122 1.181-1.197 1.763-.3 1.298 2.002 5.517 3.076 8.604 2.19 1.595-.457 3.601-.439 4.457.04.901.504 2.609.47 4.062-.083 1.379-.524 4.644-.722 7.256-.44 3.885.419 4.647.247 4.189-.947-.313-.818.037-1.512.797-1.578 1.986-.174 4.279.371 7.857 1.865 1.477.617 2.889.678 3.45.149.522-.493 1.8-.896 2.84-.896 1.039 0 2.708-1.011 3.708-2.246l1.819-2.246-.57 2.996c-.523 2.753-.428 2.879 1.168 1.56 1.333-1.101 1.912-1.152 2.489-.22.556.9 1.421.688 3.331-.814 1.419-1.117 2.93-2.03 3.358-2.03.428 0 1.771-.933 2.984-2.073 1.214-1.14 3.005-2.189 3.982-2.333.976-.143 1.89-1.048 2.032-2.011.141-.963 1.035-2.32 1.986-3.015 1.037-.759 1.418-1.768.951-2.523-.616-.997-.964-.976-1.672.098-.738 1.12-1.109 1.079-2.125-.23-1.761-2.27-5.19-3.913-8.165-3.913-1.411 0-2.566-.41-2.566-.912s-1.125-.788-2.5-.637c-1.375.15-2.5-.004-2.5-.344 0-.823-10.593-4.888-15-5.755-1.925-.379-5.249-1.468-7.386-2.421-3.141-1.4-3.524-1.84-2-2.295 1.037-.31-5.539-.365-14.614-.122-15.948.425-25.054 1.681-35.453 4.886-2.725.84-5.116 1.364-5.315 1.165-.634-.633 9.934-3.843 20.268-6.156 6.077-1.36 8.823-2.314 7-2.433-2.575-.167-2.362-.328 1.5-1.135 2.475-.517 7.425-1.308 11-1.759l6.5-.819-7 .028c-3.85.016-8.575.208-10.5.426M73 57c-.825.533-1.05.969-.5.969s1.675-.436 2.5-.969c.825-.533 1.05-.969.5-.969s-1.675.436-2.5.969m33 9c0 .55.45 1 1 1s1-.45 1-1-.45-1-1-1-1 .45-1 1m35 2c0 .55.45 1 1 1s1-.45 1-1-.45-1-1-1-1 .45-1 1m16 0c0 .55.45 1 1 1s1-.45 1-1-.45-1-1-1-1 .45-1 1m11.5 0c.34.55.816 1 1.059 1s.441-.45.441-1-.477-1-1.059-1-.781.45-.441 1m31.187 5.75c.343.963 1.042 2.293 1.554 2.956.512.664.66 1.645.329 2.181-.332.536-.241 1.198.2 1.471.639.395.852 6.142.227 6.142-.09 0-.341 2.876-.556 6.392-.215 3.515-.611 6.612-.881 6.881-.269.27-.036 1.337.518 2.373.75 1.4.649 2.022-.392 2.421-.838.322-1.28 1.618-1.101 3.235.631 5.696.672 8.752.135 10.198-2.017 5.428-.159 14.615 3.859 19.079.782.868 1.421 2.331 1.421 3.25 0 1.057.826 1.682 2.25 1.701 1.963.027 2.034.157.555 1.019-1.563.912-1.505 1.398.74 6.22 1.34 2.877 2.44 5.794 2.445 6.481.006.688.487 1.25 1.069 1.25s.738.52.345 1.156c-.523.846.867 1.012 5.191.618l5.905-.538-6.5 2.04c-5.596 1.756-6.152 2.133-4 2.712 2.44.657 2.421.691-.758 1.424-3.147.725-5.836 3.661-4.54 4.957.347.347-.006.65-.785.673-.78.023.158.927 2.083 2.008l3.5 1.966-4-.665c-3.644-.606-3.878-.517-2.628.992 1.164 1.404 1.164 1.663 0 1.699-.754.023.203.923 2.128 2.001 3.36 1.881 3.384 1.933.601 1.312-2.05-.457-2.692-.311-2.191.499.416.674.066 1.146-.851 1.146-2.441 0-1.825 3.558.825 4.765 2.064.941 2.76.694 5.187-1.839 1.542-1.609 2.433-2.926 1.981-2.926-.452 0 .279-.866 1.625-1.925 2.482-1.952 8.451-12.707 9.338-16.825.267-1.238.759-3.262 1.094-4.5 1.591-5.872 2.551-17.305 1.889-22.492-.595-4.661-.895-5.333-1.578-3.525-.714 1.891-1.345 2.137-4.131 1.607-6.744-1.283-13.03-6.468-14.384-11.864-.843-3.356 1.179-8.744 4.639-12.364 2.578-2.698 2.956-3.834 2.956-8.88 0-3.544-.586-6.623-1.511-7.944-.956-1.365-1.139-2.386-.5-2.781.556-.344 1.021-.261 1.033.184.012.445.938 1.934 2.057 3.309l2.034 2.5-2.013-4.124c-1.107-2.269-3.328-5.232-4.936-6.585-1.608-1.353-3.201-3.332-3.539-4.397-.761-2.399-6.144-8.394-7.537-8.394-.564 0-.744.787-.401 1.75M66.314 86.387c-.349.612-.269.782.177.379.446-.404 1.404.046 2.128 1 1.021 1.344 1.325 1.409 1.349.29.018-.795 1.142.06 2.499 1.899C75.148 93.589 74.987 95 71.89 95c-1.349 0-2.487-1.185-3.526-3.671-1.172-2.805-1.746-3.336-2.434-2.25-.495.781-.906 2.434-.915 3.671-.008 1.237-.492 2.25-1.074 2.25-.582 0-.821-.385-.53-.856.291-.472-1.257-2.293-3.441-4.048-2.183-1.754-4.004-2.832-4.047-2.393-.042.438-.295 1.697-.563 2.797-.268 1.1-.658 6.5-.866 12-.358 9.465-.215 10.348 2.682 16.5 2.978 6.326 3.085 6.428 4.01 3.796.523-1.488 1.826-2.982 2.897-3.322 1.07-.34 1.688-1.036 1.373-1.546-.316-.51.08-.928.88-.928 1.191 0 1.272.676.448 3.75-1.623 6.057-2.1 12.25-.944 12.25.573 0 1.287-.396 1.586-.881.767-1.241 5.574-2.036 5.574-.921 0 .506.408.668.906.36.498-.308.682-1.416.409-2.462-.344-1.316.479-2.623 2.678-4.249 1.746-1.291 3.434-2.194 3.751-2.007.317.186.978-.379 1.47-1.257 1.075-1.922 8.281-5.755 9.162-4.873.343.343.624.125.624-.484 0-.61-.457-1.391-1.016-1.736-.559-.346-.753-1.054-.431-1.575.322-.521 1.001-.691 1.508-.377.508.314 1.64.169 2.517-.321 1.36-.762 1.104-1.384-1.743-4.252-1.834-1.847-2.772-3.019-2.085-2.603.688.416 1.25.306 1.25-.244s-.448-1.277-.996-1.616c-.62-.383-.354-1.823.703-3.809 1.818-3.415 1.799-5.742-.057-6.928-.785-.501-.674-.759.35-.813 3.204-.168-4.489-2.695-10-3.285-1.375-.148-3.85-.847-5.5-1.555-4.008-1.72-9.4-2.103-10.186-.725m98.39 1.303c-.434.691.172 2.048 1.443 3.232 1.708 1.592 2.499 1.787 3.585.885 1.183-.981 1.156-1.29-.177-2.036-.864-.484-1.983-.624-2.487-.313-.504.312-1.074-.227-1.266-1.196-.241-1.219-.58-1.395-1.098-.572M66.333 98.544c0 .801.375 1.456.834 1.456.458 0 .833-.423.833-.941s-.375-1.173-.833-1.456c-.459-.283-.834.14-.834.941m-23.8.403c-.358.579.077 1.053.967 1.053s1.34.45 1 1c-.34.55-.108 1 .514 1 1.447 0 .867-3.208-.672-3.72-.637-.212-1.452.088-1.809.667m181.497.173c-.016.341.849 3.37 1.923 6.732 3.229 10.107 4.327 17.975 4.418 31.648.065 9.831-.349 14.428-1.701 18.857-1.805 5.912-1.79 7.757.043 5.417 1.485-1.896 3.088-9.312 3.841-17.774.767-8.619-.563-19.236-4.115-32.838-2.099-8.037-4.309-14.074-4.409-12.042m-109.485 2.739c-.819 2.58.233 4.85 2.524 5.449 1.361.356 1.931 1.381 1.931 3.476 0 1.634.675 3.531 1.5 4.216 1.21 1.004 1.497.979 1.485-.128-.03-2.753-5.281-14.872-6.443-14.872-.224 0-.673.837-.997 1.859M212 103c0 .55.45 1 1 1s1-.45 1-1-.45-1-1-1-1 .45-1 1m-118.5 3c.34.55.816 1 1.059 1s.441-.45.441-1-.477-1-1.059-1-.781.45-.441 1m-80.75 3.102c-1.167 2.041-1.75 5.198-1.75 9.479 0 3.53-.429 6.419-.952 6.419-.524 0-.794-1.257-.6-2.793.653-5.153-.473-8.346-2.825-8.009-2.243.321-2.46 2.208-1.106 9.645.536 2.946.898 3.27 3.046 2.731 1.34-.337 2.437-.36 2.437-.053C11 128.153 6.37 133 4.812 133c-2.156 0-2.24 1.421-.669 11.307.628 3.956 1.927 8.093 2.885 9.193C8.824 155.561 14 169.606 14 172.418c0 .87.675 1.582 1.5 1.582s1.5.45 1.5 1 .675 1 1.5 1 1.5-.525 1.5-1.167c0-2.172 1.493.283 2.729 4.487l1.229 4.18-.391-5c-.215-2.75-1.527-10.4-2.915-17-1.661-7.896-2.896-18.327-3.61-30.5-.597-10.175-1.413-19.953-1.814-21.73l-.728-3.229zm228.156 7.981c-.052 1.88-.39 7.622-.752 12.761-.362 5.14-.319 9.554.094 9.809.414.256.772-1.249.796-3.344.024-2.095.626-5.438 1.337-7.429.826-2.311 1.057-5.469.638-8.735-.784-6.109-1.981-7.844-2.113-3.062M32.19 121.027c-2.978 3.196-3.619 7.268-1.759 11.185 2.113 4.453 4.845 6.015 9.12 5.212 3.82-.716 8.449-5.382 8.449-8.515 0-3.198-6.041-8.905-10.11-9.552-2.906-.461-4.018-.136-5.7 1.67m214.81.556c0 1.766 2.153 1.459 2.771-.395.218-.654-.317-1.188-1.188-1.188-.87 0-1.583.713-1.583 1.583m-102.412 5.32c-1.625 1.796-1.62 1.888.098 1.747.998-.083 1.701.413 1.564 1.1-.465 2.325 1.42 1.269 2.679-1.5.687-1.513.913-2.416.502-2.009-.411.408-1.283.297-1.937-.246-.821-.682-1.723-.4-2.906.908m100.005 2.709c-.392 2.139-.872 7.488-1.067 11.888l-.354 8 1.164-6c.64-3.3 1.472-6.471 1.848-7.048.376-.576.271-1.701-.235-2.5-1.601-2.531-1.023-3.329 1.051-1.452 2.454 2.221 2.492 1.08.111-3.388l-1.805-3.387zm-91.609-.76c-5.108 2.714-7.984 7.472-7.984 13.207 0 4.091.434 5.128 3.077 7.352 3.774 3.176 5.58 3.366 3.48.366-2.351-3.356-1.875-4.139 1.193-1.961 4.137 2.936 11.229 1.624 15.084-2.79 3.428-3.927 5.102-2.608 2.729 2.149-1.904 3.816-1.525 4.545.945 1.816 1.135-1.254 2.005-4.127 2.29-7.567.419-5.053.204-5.815-2.419-8.574-5.763-6.062-11.971-7.412-18.395-3.998M24.272 134c0 2.475.195 3.488.434 2.25.238-1.238.238-3.262 0-4.5-.239-1.238-.434-.225-.434 2.25m85.756-2.309c.073 2.081 3.84 11.565 3.896 9.809.092-2.847-1.82-9.317-2.961-10.023-.53-.327-.95-.231-.935.214m53.972 3.34c0 1.118.72 2.308 1.601 2.646 2.038.782 3.645-1.675 2.219-3.393-1.626-1.96-3.82-1.53-3.82.747m-75.333.636c-.367.366-.667 1.131-.667 1.7 0 .626.466.567 1.183-.15.651-.651.951-1.416.667-1.7-.284-.285-.817-.217-1.183.15m159.03 2.726c-.409 1.041-.508 2.129-.221 2.417.913.912 1.715-.583 1.333-2.482-.35-1.74-.404-1.737-1.112.065m-217.058 3.301c-1.195 1.195-.645 3.306.861 3.306.825 0 1.5-.648 1.5-1.441 0-1.671-1.427-2.798-2.361-1.865m56.383 3.056c.012.412.94 1.875 2.06 3.25l2.038 2.5-1.585-3.25c-1.507-3.088-2.561-4.137-2.513-2.5M83 147.378c0 .207.787.995 1.75 1.75 1.586 1.243 1.621 1.208.378-.378-1.307-1.666-2.128-2.195-2.128-1.372m-76.921 3.205c.048 1.165.285 1.402.604.605.289-.722.253-1.585-.079-1.917-.332-.332-.568.258-.525 1.312M222 150.059c0 .582.45.781 1 .441s1-.816 1-1.059-.45-.441-1-.441-1 .477-1 1.059M217 153c0 .55.423 1 .941 1s1.219-.45 1.559-1c.34-.55-.084-1-.941-1s-1.559.45-1.559 1m20.564 3.707c-.542 1.425-.428 1.54.56.56.684-.679.991-1.486.683-1.793-.308-.308-.867.247-1.243 1.233m-2.086 8.392c-.954 4.347.872 5.823 3.064 2.477.951-1.451 1.478-2.889 1.172-3.196-.307-.306-1.244.72-2.083 2.282l-1.525 2.838.578-3.75c.696-4.515-.245-5.024-1.206-.651m-8.249-.262c-.699.444-2.83 4.059-4.735 8.035-3.741 7.805-3.217 8.523 1.334 1.827 2.322-3.415 5.663-10.745 4.87-10.684-.109.009-.77.379-1.469.822m-164.416.846c.721.289 1.584.253 1.916-.079.332-.332-.258-.568-1.312-.525-1.165.048-1.402.285-.604.604m35.187.71c0 .216.675.652 1.5.969.825.316 1.5.139 1.5-.393 0-.533-.675-.969-1.5-.969s-1.5.177-1.5.393m121.25 1.269c-1.464.591-1.699 3.338-.285 3.338.53 0 1.446-.9 2.035-2 1.063-1.987.647-2.305-1.75-1.338M180 170c-1.333.862-1.333.963 0 .914.825-.03 2.4-.441 3.5-.914l2-.859-2-.055c-1.1-.031-2.675.381-3.5.914m60.453 1.076c-.852 1.378.008 2.188 1.87 1.762 1.237-.282 1.259-.541.131-1.578-.919-.845-1.556-.904-2.001-.184m-6.453.983c0 .582.45.781 1 .441s1-.816 1-1.059-.45-.441-1-.441-1 .477-1 1.059m-20.187 2.624c.721.289 1.584.253 1.916-.079.332-.332-.258-.568-1.312-.525-1.165.048-1.402.285-.604.604M93.75 182.566c-2.612 1.36-4.75 2.7-4.75 2.979 0 .278 1.328-.18 2.95-1.019 3.322-1.718 5.457-1.993 4.591-.593-.317.513.695 1.684 2.248 2.601 1.553.918 3.249 2.584 3.767 3.704.519 1.119 1.394 1.992 1.944 1.938 1.361-.132 1.913-4.176.57-4.176-.589 0-1.07-.675-1.07-1.5s-.505-1.5-1.122-1.5c-.818 0-.811-.376.025-1.383.884-1.065.804-1.515-.345-1.957-.822-.315-1.76-.142-2.085.384-.325.526-1.07.956-1.654.956-.671 0-.604-.554.181-1.5 1.746-2.104.26-1.803-5.25 1.066m79.983 2.558c.679.684 1.486.991 1.793.683.308-.308-.247-.867-1.233-1.243-1.425-.542-1.54-.428-.56.56m-88.983 2.448c-3.738 2.028-3.511 2.873.25.928 1.65-.853 3-1.765 3-2.026 0-.643-.107-.607-3.25 1.098M204 187c1.958 1.266 3.282 1.266 2.5 0-.34-.55-1.379-.993-2.309-.985-1.457.014-1.484.15-.191.985m-5.541 4.067c-.917 1.483-.055 2.099 1.892 1.352.901-.346 1.389-1.031 1.084-1.524-.748-1.211-2.172-1.129-2.976.172m-151.852 5.76c-.659 1.066.716 2.348 4.393 4.095 2.387 1.135 2.41 1.117.5-.388-1.1-.868-2.519-2.269-3.154-3.115-.639-.852-1.415-1.116-1.739-.592M184 205c-1.293.835-1.266.971.191.985.93.008 1.969-.435 2.309-.985.782-1.266-.542-1.266-2.5 0m12.664 7.433c-.331.862-.165 1.567.367 1.567.533 0 .969.675.969 1.5s.48 1.5 1.067 1.5c.642 0 .797-.897.388-2.25-.968-3.205-2.092-4.138-2.791-2.317M200 213c0 1.1.45 2 1 2s1-.9 1-2-.45-2-1-2-1 .9-1 2m3-.583c0 .87.713 1.583 1.583 1.583 1.766 0 1.459-2.153-.395-2.771-.654-.218-1.188.317-1.188 1.188m-20.753.736c-1.506 1.506.203 4.847 2.479 4.847 1.449 0 1.425-.169-.188-1.348-1.809-1.323-1.31-4.247.531-3.109.512.316.931.098.931-.484 0-1.409-2.308-1.351-3.753.094m10.196 1.265c-2.374 1.736-1.22 3.243 1.522 1.989 1.254-.573 1.696-1.367 1.201-2.157-.618-.985-1.195-.949-2.723.168M59.693 218.7c-2.371.615-1.754 3.688.818 4.078 1.979.3 1.979.293-.011-1.373-1.645-1.377-1.689-1.567-.25-1.071 1.146.395 1.75.096 1.75-.865 0-.808-.112-1.417-.25-1.353-.138.064-1.063.327-2.057.584M49 220c1.958 1.266 3.282 1.266 2.5 0-.34-.55-1.379-.993-2.309-.985-1.457.014-1.484.15-.191.985m141 2c-.901.582-1.025.975-.309.985.655.008 1.469-.435 1.809-.985.767-1.242.421-1.242-1.5 0m-17.187.683c.721.289 1.584.253 1.916-.079.332-.332-.258-.568-1.312-.525-1.165.048-1.402.285-.604.604m13 0c.721.289 1.584.253 1.916-.079.332-.332-.258-.568-1.312-.525-1.165.048-1.402.285-.604.604"/></svg>